<mxfile host="app.diagrams.net" modified="2022-06-24T00:59:31.437Z" agent="5.0 (Windows NT 10.0; Win64; x64) AppleWebKit/537.36 (KHTML, like Gecko) Chrome/102.0.0.0 Safari/537.36" etag="jZJyvAn6Kw91kpCzth-d" version="20.0.1" type="github">
  <diagram id="vd4IEW5bPJ3Lc714yJ2A" name="Page-1">
    <mxGraphModel dx="1038" dy="539" grid="1" gridSize="10" guides="1" tooltips="1" connect="1" arrows="1" fold="1" page="1" pageScale="1" pageWidth="1169" pageHeight="1654" math="0" shadow="0">
      <root>
        <mxCell id="0" />
        <mxCell id="1" parent="0" />
        <mxCell id="B7eR0_gvoNQTWM7xTdeP-11" style="edgeStyle=orthogonalEdgeStyle;rounded=0;orthogonalLoop=1;jettySize=auto;html=1;entryX=0.5;entryY=0;entryDx=0;entryDy=0;" edge="1" parent="1" source="B7eR0_gvoNQTWM7xTdeP-5" target="B7eR0_gvoNQTWM7xTdeP-7">
          <mxGeometry relative="1" as="geometry" />
        </mxCell>
        <mxCell id="B7eR0_gvoNQTWM7xTdeP-5" value="게임 시작" style="ellipse;whiteSpace=wrap;html=1;" vertex="1" parent="1">
          <mxGeometry x="170" y="40" width="120" height="80" as="geometry" />
        </mxCell>
        <mxCell id="B7eR0_gvoNQTWM7xTdeP-12" style="edgeStyle=orthogonalEdgeStyle;rounded=0;orthogonalLoop=1;jettySize=auto;html=1;entryX=0.5;entryY=0;entryDx=0;entryDy=0;" edge="1" parent="1" source="B7eR0_gvoNQTWM7xTdeP-7" target="B7eR0_gvoNQTWM7xTdeP-8">
          <mxGeometry relative="1" as="geometry" />
        </mxCell>
        <mxCell id="B7eR0_gvoNQTWM7xTdeP-7" value="용사 생성" style="rounded=0;whiteSpace=wrap;html=1;" vertex="1" parent="1">
          <mxGeometry x="170" y="160" width="120" height="60" as="geometry" />
        </mxCell>
        <mxCell id="B7eR0_gvoNQTWM7xTdeP-13" style="edgeStyle=orthogonalEdgeStyle;rounded=0;orthogonalLoop=1;jettySize=auto;html=1;entryX=0.5;entryY=0;entryDx=0;entryDy=0;" edge="1" parent="1" source="B7eR0_gvoNQTWM7xTdeP-8">
          <mxGeometry relative="1" as="geometry">
            <mxPoint x="230" y="360" as="targetPoint" />
          </mxGeometry>
        </mxCell>
        <mxCell id="B7eR0_gvoNQTWM7xTdeP-8" value="무기 생성" style="rounded=0;whiteSpace=wrap;html=1;" vertex="1" parent="1">
          <mxGeometry x="170" y="260" width="120" height="60" as="geometry" />
        </mxCell>
        <mxCell id="B7eR0_gvoNQTWM7xTdeP-14" style="edgeStyle=orthogonalEdgeStyle;rounded=0;orthogonalLoop=1;jettySize=auto;html=1;entryX=0.5;entryY=0;entryDx=0;entryDy=0;" edge="1" parent="1">
          <mxGeometry relative="1" as="geometry">
            <mxPoint x="230" y="420" as="sourcePoint" />
            <mxPoint x="230" y="460" as="targetPoint" />
          </mxGeometry>
        </mxCell>
        <mxCell id="B7eR0_gvoNQTWM7xTdeP-15" value="캐릭터 정보 안내" style="shape=parallelogram;perimeter=parallelogramPerimeter;whiteSpace=wrap;html=1;fixedSize=1;" vertex="1" parent="1">
          <mxGeometry x="170" y="360" width="120" height="60" as="geometry" />
        </mxCell>
        <mxCell id="B7eR0_gvoNQTWM7xTdeP-18" style="edgeStyle=orthogonalEdgeStyle;rounded=0;orthogonalLoop=1;jettySize=auto;html=1;entryX=0.5;entryY=0;entryDx=0;entryDy=0;" edge="1" parent="1" source="B7eR0_gvoNQTWM7xTdeP-16" target="B7eR0_gvoNQTWM7xTdeP-17">
          <mxGeometry relative="1" as="geometry" />
        </mxCell>
        <mxCell id="B7eR0_gvoNQTWM7xTdeP-16" value="마을 입장" style="rounded=0;whiteSpace=wrap;html=1;" vertex="1" parent="1">
          <mxGeometry x="170" y="460" width="120" height="60" as="geometry" />
        </mxCell>
        <mxCell id="B7eR0_gvoNQTWM7xTdeP-17" value="npc 선택" style="rhombus;whiteSpace=wrap;html=1;" vertex="1" parent="1">
          <mxGeometry x="170" y="560" width="120" height="80" as="geometry" />
        </mxCell>
        <mxCell id="B7eR0_gvoNQTWM7xTdeP-31" value="" style="edgeStyle=orthogonalEdgeStyle;rounded=0;orthogonalLoop=1;jettySize=auto;html=1;" edge="1" parent="1" source="B7eR0_gvoNQTWM7xTdeP-24" target="B7eR0_gvoNQTWM7xTdeP-27">
          <mxGeometry relative="1" as="geometry" />
        </mxCell>
        <mxCell id="B7eR0_gvoNQTWM7xTdeP-24" value="npc 선택" style="rhombus;whiteSpace=wrap;html=1;" vertex="1" parent="1">
          <mxGeometry x="480" y="40" width="120" height="80" as="geometry" />
        </mxCell>
        <mxCell id="B7eR0_gvoNQTWM7xTdeP-32" value="Yes" style="edgeStyle=orthogonalEdgeStyle;rounded=0;orthogonalLoop=1;jettySize=auto;html=1;entryX=0.5;entryY=0;entryDx=0;entryDy=0;" edge="1" parent="1" source="B7eR0_gvoNQTWM7xTdeP-27" target="B7eR0_gvoNQTWM7xTdeP-28">
          <mxGeometry relative="1" as="geometry" />
        </mxCell>
        <mxCell id="B7eR0_gvoNQTWM7xTdeP-33" value="No" style="edgeStyle=orthogonalEdgeStyle;rounded=0;orthogonalLoop=1;jettySize=auto;html=1;entryX=0;entryY=0.5;entryDx=0;entryDy=0;" edge="1" parent="1" source="B7eR0_gvoNQTWM7xTdeP-27" target="B7eR0_gvoNQTWM7xTdeP-29">
          <mxGeometry relative="1" as="geometry" />
        </mxCell>
        <mxCell id="B7eR0_gvoNQTWM7xTdeP-27" value="퀘스트 수주" style="rhombus;whiteSpace=wrap;html=1;" vertex="1" parent="1">
          <mxGeometry x="480" y="150" width="120" height="80" as="geometry" />
        </mxCell>
        <mxCell id="B7eR0_gvoNQTWM7xTdeP-35" value="" style="edgeStyle=orthogonalEdgeStyle;rounded=0;orthogonalLoop=1;jettySize=auto;html=1;" edge="1" parent="1" source="B7eR0_gvoNQTWM7xTdeP-28" target="B7eR0_gvoNQTWM7xTdeP-34">
          <mxGeometry relative="1" as="geometry" />
        </mxCell>
        <mxCell id="B7eR0_gvoNQTWM7xTdeP-28" value="퀘스트 진행" style="rounded=0;whiteSpace=wrap;html=1;" vertex="1" parent="1">
          <mxGeometry x="480" y="260" width="120" height="60" as="geometry" />
        </mxCell>
        <mxCell id="B7eR0_gvoNQTWM7xTdeP-30" style="edgeStyle=orthogonalEdgeStyle;rounded=0;orthogonalLoop=1;jettySize=auto;html=1;entryX=1;entryY=0.5;entryDx=0;entryDy=0;" edge="1" parent="1" source="B7eR0_gvoNQTWM7xTdeP-29" target="B7eR0_gvoNQTWM7xTdeP-24">
          <mxGeometry relative="1" as="geometry">
            <Array as="points">
              <mxPoint x="720" y="80" />
            </Array>
          </mxGeometry>
        </mxCell>
        <mxCell id="B7eR0_gvoNQTWM7xTdeP-29" value="마을로 돌아간다" style="rounded=0;whiteSpace=wrap;html=1;" vertex="1" parent="1">
          <mxGeometry x="660" y="160" width="120" height="60" as="geometry" />
        </mxCell>
        <mxCell id="B7eR0_gvoNQTWM7xTdeP-37" value="" style="edgeStyle=orthogonalEdgeStyle;rounded=0;orthogonalLoop=1;jettySize=auto;html=1;" edge="1" parent="1" source="B7eR0_gvoNQTWM7xTdeP-34" target="B7eR0_gvoNQTWM7xTdeP-36">
          <mxGeometry relative="1" as="geometry" />
        </mxCell>
        <mxCell id="B7eR0_gvoNQTWM7xTdeP-34" value="퀘스트 임무 완료" style="rounded=0;whiteSpace=wrap;html=1;" vertex="1" parent="1">
          <mxGeometry x="480" y="360" width="120" height="60" as="geometry" />
        </mxCell>
        <mxCell id="B7eR0_gvoNQTWM7xTdeP-39" value="" style="edgeStyle=orthogonalEdgeStyle;rounded=0;orthogonalLoop=1;jettySize=auto;html=1;" edge="1" parent="1" source="B7eR0_gvoNQTWM7xTdeP-36" target="B7eR0_gvoNQTWM7xTdeP-38">
          <mxGeometry relative="1" as="geometry" />
        </mxCell>
        <mxCell id="B7eR0_gvoNQTWM7xTdeP-36" value="마을로 돌아간다" style="rounded=0;whiteSpace=wrap;html=1;" vertex="1" parent="1">
          <mxGeometry x="480" y="460" width="120" height="60" as="geometry" />
        </mxCell>
        <mxCell id="B7eR0_gvoNQTWM7xTdeP-41" style="edgeStyle=orthogonalEdgeStyle;rounded=0;orthogonalLoop=1;jettySize=auto;html=1;entryX=0.5;entryY=0;entryDx=0;entryDy=0;" edge="1" parent="1" source="B7eR0_gvoNQTWM7xTdeP-38" target="B7eR0_gvoNQTWM7xTdeP-40">
          <mxGeometry relative="1" as="geometry" />
        </mxCell>
        <mxCell id="B7eR0_gvoNQTWM7xTdeP-38" value="npc에게 퀘스트 완료" style="rounded=0;whiteSpace=wrap;html=1;" vertex="1" parent="1">
          <mxGeometry x="480" y="560" width="120" height="60" as="geometry" />
        </mxCell>
        <mxCell id="B7eR0_gvoNQTWM7xTdeP-44" value="No" style="edgeStyle=orthogonalEdgeStyle;rounded=0;orthogonalLoop=1;jettySize=auto;html=1;entryX=0.5;entryY=0;entryDx=0;entryDy=0;" edge="1" parent="1" source="B7eR0_gvoNQTWM7xTdeP-40">
          <mxGeometry relative="1" as="geometry">
            <mxPoint x="540" y="780" as="targetPoint" />
          </mxGeometry>
        </mxCell>
        <mxCell id="B7eR0_gvoNQTWM7xTdeP-46" value="Yes" style="edgeStyle=orthogonalEdgeStyle;rounded=0;orthogonalLoop=1;jettySize=auto;html=1;entryX=0;entryY=0.5;entryDx=0;entryDy=0;" edge="1" parent="1" source="B7eR0_gvoNQTWM7xTdeP-40" target="B7eR0_gvoNQTWM7xTdeP-27">
          <mxGeometry x="-0.9344" relative="1" as="geometry">
            <Array as="points">
              <mxPoint x="430" y="700" />
              <mxPoint x="430" y="190" />
            </Array>
            <mxPoint as="offset" />
          </mxGeometry>
        </mxCell>
        <mxCell id="B7eR0_gvoNQTWM7xTdeP-40" value="npc 선택" style="rhombus;whiteSpace=wrap;html=1;" vertex="1" parent="1">
          <mxGeometry x="480" y="660" width="120" height="80" as="geometry" />
        </mxCell>
        <mxCell id="B7eR0_gvoNQTWM7xTdeP-45" value="게임 종료" style="rhombus;whiteSpace=wrap;html=1;" vertex="1" parent="1">
          <mxGeometry x="480" y="780" width="120" height="80" as="geometry" />
        </mxCell>
      </root>
    </mxGraphModel>
  </diagram>
</mxfile>
